<svg width="100%" viewBox="0 0 680 700" role="img" xmlns="http://www.w3.org/2000/svg">
<title>Real-time analytics pipeline architecture</title>
<desc>The existing JS SDK sends events to a stateless collector that acknowledges only after a durable commit; the collector appends to an immutable durable event log carrying two append-only logical streams: raw events and identity corrections. Three independent serving projections consume the log: an analytical projection writing to a new columnar OLAP store read by the customer dashboard; a decisioning projection writing per-visitor state to existing Redis read by render-path personalization; and an identity resolution service that consumes both streams during resolution and produces only new immutable identity-correction events, never mutating existing events. A separate warehouse export consumer feeds the customer's Snowflake or BigQuery. Existing Postgres holds OLTP metadata read by the identity service. Existing components are gray, the single new managed store is teal, the log spine is purple, external consumer actors are dashed.</desc>
<defs>
<marker id="arrow" viewBox="0 0 10 10" refX="8" refY="5" markerWidth="6" markerHeight="6" orient="auto-start-reverse"><path d="M2 1L8 5L2 9" fill="none" stroke="context-stroke" stroke-width="1.5" stroke-linecap="round" stroke-linejoin="round"/></marker>
<style>
text{font-family:'Anthropic Sans','Helvetica Neue',Arial,sans-serif;}
.t{font-size:14px;fill:#3d3d3a;}
.ts{font-size:12px;fill:#73726c;}
.th{font-size:14px;font-weight:500;fill:#3d3d3a;}
.arr{stroke:#73726c;stroke-width:1.5;fill:none;}
.gray-fill{fill:#F1EFE8;stroke:#5F5E5A;}
.gray-th{font-weight:500;fill:#2C2C2A;}
.gray-ts{fill:#5F5E5A;}
.teal-fill{fill:#E1F5EE;stroke:#0F6E56;}
.teal-th{font-weight:500;fill:#085041;}
.teal-ts{fill:#0F6E56;}
.blue-fill{fill:#E6F1FB;stroke:#185FA5;}
.blue-th{font-weight:500;fill:#0C447C;}
.blue-ts{fill:#185FA5;}
.purple-fill{fill:#EEEDFE;stroke:#534AB7;}
.purple-th{font-weight:500;fill:#3C3489;}
.purple-ts{fill:#534AB7;}
.ext-fill{fill:#ffffff;stroke:#888780;}
.ext-th{font-weight:500;fill:#2C2C2A;}
.ext-ts{fill:#5F5E5A;}
.dash{stroke:#73726c;stroke-dasharray:4 3;fill:none;}
</style>
</defs>

<rect class="gray-fill" x="40" y="20" width="13" height="13" rx="3" stroke-width="0.5"/>
<text class="ts" x="59" y="30">existing</text>
<rect class="teal-fill" x="130" y="20" width="13" height="13" rx="3" stroke-width="0.5"/>
<text class="ts" x="149" y="30">new store</text>
<rect class="purple-fill" x="238" y="20" width="13" height="13" rx="3" stroke-width="0.5"/>
<text class="ts" x="257" y="30">log spine</text>
<rect class="ext-fill" x="330" y="20" width="13" height="13" rx="3" stroke-width="1" stroke-dasharray="3 2"/>
<text class="ts" x="349" y="30">external actor</text>

<rect class="gray-fill" x="40" y="66" width="118" height="56" rx="8" stroke-width="0.5"/>
<text class="th gray-th" x="99" y="90" text-anchor="middle">JS SDK</text>
<text class="ts gray-ts" x="99" y="108" text-anchor="middle">existing, unchanged</text>

<rect class="blue-fill" x="200" y="62" width="148" height="64" rx="8" stroke-width="0.5"/>
<text class="th blue-th" x="274" y="86" text-anchor="middle">Collector</text>
<text class="ts blue-ts" x="274" y="104" text-anchor="middle">stateless · ack-after-durable</text>
<text class="ts blue-ts" x="274" y="119" text-anchor="middle">fail-closed</text>

<rect class="purple-fill" x="404" y="60" width="236" height="128" rx="12" stroke-width="0.5"/>
<text class="th purple-th" x="522" y="84" text-anchor="middle">Durable event log</text>
<text class="ts purple-ts" x="522" y="101" text-anchor="middle">source of truth · replayable · immutable</text>
<rect class="purple-fill" x="422" y="110" width="200" height="30" rx="6" stroke-width="0.5"/>
<text class="ts purple-ts" x="522" y="129" text-anchor="middle">stream 1: raw events</text>
<rect class="purple-fill" x="422" y="148" width="200" height="30" rx="6" stroke-width="0.5"/>
<text class="ts purple-ts" x="522" y="167" text-anchor="middle">stream 2: identity corrections</text>

<line x1="158" y1="94" x2="194" y2="94" class="arr" marker-end="url(#arrow)"/>
<line x1="348" y1="94" x2="398" y2="94" class="arr" marker-end="url(#arrow)"/>

<text class="ts" x="266" y="220" text-anchor="middle">three independent serving projections — isolated failure domains</text>

<rect class="teal-fill" x="36" y="258" width="150" height="58" rx="8" stroke-width="0.5"/>
<text class="th teal-th" x="111" y="282" text-anchor="middle">Analytical projection</text>
<text class="ts teal-ts" x="111" y="300" text-anchor="middle">OLAP · &lt;5s fresh</text>

<rect class="gray-fill" x="200" y="258" width="150" height="58" rx="8" stroke-width="0.5"/>
<text class="th gray-th" x="275" y="282" text-anchor="middle">Decisioning projection</text>
<text class="ts gray-ts" x="275" y="300" text-anchor="middle">per-visitor · Redis</text>

<rect class="blue-fill" x="364" y="258" width="150" height="58" rx="8" stroke-width="0.5"/>
<text class="th blue-th" x="439" y="282" text-anchor="middle">Identity resolution</text>
<text class="ts blue-ts" x="439" y="300" text-anchor="middle">deterministic · reversible</text>

<line x1="460" y1="188" x2="120" y2="252" class="arr" marker-end="url(#arrow)"/>
<line x1="486" y1="188" x2="278" y2="252" class="arr" marker-end="url(#arrow)"/>
<line x1="512" y1="188" x2="442" y2="252" class="arr" marker-end="url(#arrow)"/>

<line x1="580" y1="200" x2="580" y2="170" class="dash"/>
<line x1="580" y1="170" x2="626" y2="170" class="dash" marker-end="url(#arrow)"/>
<line x1="514" y1="287" x2="580" y2="287" class="dash"/>
<line x1="580" y1="287" x2="580" y2="204" class="dash"/>

<rect class="teal-fill" x="36" y="388" width="150" height="52" rx="8" stroke-width="0.5"/>
<text class="th teal-th" x="111" y="412" text-anchor="middle">Columnar OLAP</text>
<text class="ts teal-ts" x="111" y="430" text-anchor="middle">the one new store</text>
<line x1="111" y1="316" x2="111" y2="382" class="arr" marker-end="url(#arrow)"/>

<rect class="gray-fill" x="200" y="388" width="150" height="52" rx="8" stroke-width="0.5"/>
<text class="th gray-th" x="275" y="412" text-anchor="middle">Redis</text>
<text class="ts gray-ts" x="275" y="430" text-anchor="middle">existing</text>
<line x1="275" y1="316" x2="275" y2="382" class="arr" marker-end="url(#arrow)"/>

<rect class="gray-fill" x="364" y="388" width="150" height="52" rx="8" stroke-width="0.5"/>
<text class="th gray-th" x="439" y="412" text-anchor="middle">Postgres</text>
<text class="ts gray-ts" x="439" y="430" text-anchor="middle">OLTP metadata</text>
<line x1="439" y1="316" x2="439" y2="382" class="dash" stroke-width="0.5" marker-end="url(#arrow)"/>
<text class="ts" x="447" y="352" text-anchor="start">metadata</text>

<rect class="ext-fill" x="36" y="492" width="150" height="52" rx="8" stroke-width="1.2" stroke-dasharray="5 3"/>
<text class="th ext-th" x="111" y="514" text-anchor="middle">Customer dashboard</text>
<text class="ts ext-ts" x="111" y="532" text-anchor="middle">consumer (brief)</text>
<line x1="111" y1="440" x2="111" y2="486" class="arr" marker-end="url(#arrow)"/>

<rect class="ext-fill" x="200" y="492" width="150" height="52" rx="8" stroke-width="1.2" stroke-dasharray="5 3"/>
<text class="th ext-th" x="275" y="514" text-anchor="middle">Personalization</text>
<text class="ts ext-ts" x="275" y="532" text-anchor="middle">render-path (brief)</text>
<line x1="275" y1="440" x2="275" y2="486" class="arr" marker-end="url(#arrow)"/>

<text class="ts" x="574" y="378" text-anchor="middle">additional log consumer</text>
<rect class="gray-fill" x="508" y="388" width="132" height="52" rx="8" stroke-width="0.5"/>
<text class="th gray-th" x="574" y="410" text-anchor="middle">Warehouse export</text>
<text class="ts gray-ts" x="574" y="428" text-anchor="middle">log consumer</text>
<line x1="620" y1="188" x2="590" y2="382" class="arr" marker-end="url(#arrow)"/>

<rect class="ext-fill" x="508" y="492" width="132" height="52" rx="8" stroke-width="1.2" stroke-dasharray="5 3"/>
<text class="th ext-th" x="574" y="514" text-anchor="middle">Snowflake /</text>
<text class="ts ext-ts" x="574" y="532" text-anchor="middle">BigQuery</text>
<line x1="574" y1="440" x2="574" y2="486" class="arr" marker-end="url(#arrow)"/>

<text class="ts" x="40" y="596">Under contention (ADR-000 §5): customer-facing paths — ingestion,</text>
<text class="ts" x="40" y="614">personalization, dashboard — take priority over export and backfill.</text>
</svg>
